<!-- Created with Inkscape (http://www.inkscape.org/) -->
<svg xmlns:rdf="http://www.w3.org/1999/02/22-rdf-syntax-ns#" xmlns="http://www.w3.org/2000/svg" height="64px" width="64px" version="1.1" xmlns:cc="http://creativecommons.org/ns#" xmlns:xlink="http://www.w3.org/1999/xlink" xmlns:dc="http://purl.org/dc/elements/1.1/">
 <defs>
  <linearGradient id="linearGradient5269" y2="-70.231" gradientUnits="userSpaceOnUse" y1="-119.34" gradientTransform="translate(0.3594,161.3984)" x2="583.58" x1="555.23">
   <stop stop-color="#F97" offset="0"/>
   <stop stop-color="#D54" offset="1"/>
  </linearGradient>
 </defs>
 <metadata>
  <rdf:RDF>
   <cc:Work rdf:about="">
    <dc:format>image/svg+xml</dc:format>
    <dc:type rdf:resource="http://purl.org/dc/dcmitype/StillImage"/>
    <dc:title/>
   </cc:Work>
  </rdf:RDF>
 </metadata>
 <circle cx="569.76" cy="66.614" transform="translate(-537.1856,-35.131425)" r="28.347" fill="url(#linearGradient5269)"/>
 <g font-family="DejaVuSans" transform="translate(18.394985,42.451574)" font-size="48px">
  <path d="M2.3906,2.0625,6.4922,2.6719c0.1719,1.2656,0.6484,2.1875,1.4297,2.7656,1.0469,0.78124,2.4766,1.1719,4.2891,1.1719,1.9531-0.0000066,3.4609-0.39063,4.5234-1.1719,1.0625-0.78125,1.7812-1.875,2.1562-3.2812,0.21873-0.85938,0.32029-2.6641,0.30469-5.4141-1.843,2.1719-4.14,3.2578-6.89,3.2578-3.4222,0-6.0706-1.2344-7.9456-3.7031s-2.8125-5.4297-2.8125-8.8828c-0.0000015-2.375,0.42969-4.5664,1.2891-6.5742,0.85937-2.0078,2.1055-3.5586,3.7383-4.6523s3.5508-1.6406,5.7539-1.6406c2.9375,0.000025,5.3594,1.1875,7.2656,3.5625v-3h3.8906v21.516c-0.000023,3.875-0.39455,6.6211-1.1836,8.2383-0.78908,1.6172-2.0391,2.8945-3.75,3.832-1.711,0.9365-3.817,1.4057-6.317,1.4057-2.9684,0-5.3668-0.6684-7.1949-2.0043-1.8282-1.336-2.711-3.3477-2.6485-6.0352zm3.4922-14.953c-0.0000059,3.2656,0.64843,5.6484,1.9453,7.1484s2.9219,2.25,4.875,2.25c1.9375,0.0000035,3.5625-0.74609,4.875-2.2383s1.9687-3.832,1.9688-7.0195c-0.00002-3.0469-0.6758-5.3437-2.0273-6.8906-1.3516-1.5469-2.9805-2.3203-4.8867-2.3203-1.875,0.000021-3.4688,0.76174-4.7813,2.2852s-1.9688,3.7852-1.9688,6.7852z"/>
 </g>
</svg>
