<!-- Created with Inkscape (http://www.inkscape.org/) -->
<svg xmlns:rdf="http://www.w3.org/1999/02/22-rdf-syntax-ns#" xmlns="http://www.w3.org/2000/svg" height="64px" width="64px" version="1.1" xmlns:cc="http://creativecommons.org/ns#" xmlns:xlink="http://www.w3.org/1999/xlink" xmlns:dc="http://purl.org/dc/elements/1.1/">
 <defs>
  <linearGradient id="linearGradient5029" y2="360.63" gradientUnits="userSpaceOnUse" y1="311.53" gradientTransform="translate(0.3594,161.3984)" x2="152.72" x1="124.36">
   <stop stop-color="#FE7" offset="0"/>
   <stop stop-color="#EB3" offset="1"/>
  </linearGradient>
 </defs>
 <metadata>
  <rdf:RDF>
   <cc:Work rdf:about="">
    <dc:format>image/svg+xml</dc:format>
    <dc:type rdf:resource="http://purl.org/dc/dcmitype/StillImage"/>
    <dc:title/>
   </cc:Work>
  </rdf:RDF>
 </metadata>
 <circle cx="138.9" cy="497.48" transform="translate(-106.35254,-465.65981)" r="28.347" fill="url(#linearGradient5029)"/>
 <g style="writing-mode:lr-tb;letter-spacing:-2;text-anchor:start;text-align:start;" font-weight="normal" transform="translate(12.116253,45.828478)" font-stretch="normal" font-size="51.20000076px" font-variant="normal" font-style="normal" font-family="DejaVu Serif" line-height="125%">
  <path style="text-align:start;" d="m10.85-2.9c2.0333-0.8,4.15-2.1667,6.35-4.1,1.3333-1.1667,2.7916-3.2,4.375-6.1,1.0166-1.8,1.5916-3.5333,1.725-5.2,0.13331-1.5333-0.15002-2.8833-0.85-4.05-0.95002-1.6166-2.025-2.5333-3.225-2.75v-1.475h2.8c1.8833,0.81669,3.4916,2.1334,4.825,3.95,1.0333,1.4,1.5583,2.95,1.575,4.65-0.000028,1.2334-0.24169,2.3583-0.725,3.375-0.35003,0.73335-1.125,1.9583-2.325,3.675-1.5834,2.2167-3.4,4.0917-5.45,5.625-3.75,2.8-6.775,4.5667-9.075,5.3h-4.625l0.025-23.9h-4.4v-2.675h9z"/>
 </g>
 <g font-family="DejaVuSans" transform="translate(38.527354,45.828478)" font-size="24px">
  <path d="m10.102-4.0078,2.1797,0.26953c-0.34376,1.2734-0.98048,2.2617-1.9102,2.9648-0.9306,0.70319-2.1181,1.0548-3.5634,1.0548-1.8203,0-3.2637-0.56055-4.3301-1.6816-1.0664-1.1211-1.5996-2.6933-1.5996-4.7168-8.8E-7-2.0937,0.53906-3.7187,1.6172-4.875,1.0781-1.1562,2.4766-1.7344,4.1953-1.7344,1.6641,0.000013,3.0234,0.56642,4.0781,1.6992s1.582,2.7266,1.582,4.7813c-0.000013,0.12501-0.0039,0.31251-0.01172,0.5625h-9.2813c0.078122,1.3672,0.46484,2.4141,1.1602,3.1406,0.69531,0.72656,1.5625,1.0898,2.6016,1.0898,0.77343,0.0000015,1.4336-0.20312,1.9805-0.60938,0.54687-0.40625,0.98046-1.0547,1.3008-1.9453zm-6.9258-3.4102,6.9492,0c-2.274-1.3163-2.5394-2.1015-2.9769-2.6249-0.6719-0.8126-1.543-1.2186-2.6133-1.2186-0.96876,0.000011-1.7832,0.32423-2.4434,0.97266-0.66016,0.64845-1.0254,1.5156-1.0957,2.6016z"/>
 </g>
</svg>
