<!-- Created with Inkscape (http://www.inkscape.org/) -->
<svg xmlns:rdf="http://www.w3.org/1999/02/22-rdf-syntax-ns#" xmlns="http://www.w3.org/2000/svg" height="64px" width="64px" version="1.1" xmlns:cc="http://creativecommons.org/ns#" xmlns:xlink="http://www.w3.org/1999/xlink" xmlns:dc="http://purl.org/dc/elements/1.1/">
 <defs>
  <linearGradient id="linearGradient5191" y2="360.63" gradientUnits="userSpaceOnUse" y1="311.53" gradientTransform="translate(0.3594,161.3984)" x2="436.18" x1="407.83">
   <stop stop-color="#FE7" offset="0"/>
   <stop stop-color="#EB3" offset="1"/>
  </linearGradient>
 </defs>
 <metadata>
  <rdf:RDF>
   <cc:Work rdf:about="">
    <dc:format>image/svg+xml</dc:format>
    <dc:type rdf:resource="http://purl.org/dc/dcmitype/StillImage"/>
    <dc:title/>
   </cc:Work>
  </rdf:RDF>
 </metadata>
 <circle cx="422.36" cy="497.48" transform="translate(-389.74286,-465.88651)" r="28.347" fill="url(#linearGradient5191)"/>
 <g style="writing-mode:lr-tb;letter-spacing:-2;text-anchor:start;text-align:start;" font-weight="normal" transform="translate(12.935324,45.601795)" font-stretch="normal" font-size="51.20000076px" font-variant="normal" font-style="normal" font-family="DejaVu Serif" line-height="125%">
  <path style="text-align:start;" d="m10.85-2.9c2.0333-0.8,4.15-2.1667,6.35-4.1,1.3333-1.1667,2.7916-3.2,4.375-6.1,1.0166-1.8,1.5916-3.5333,1.725-5.2,0.13331-1.5333-0.15002-2.8833-0.85-4.05-0.95002-1.6166-2.025-2.5333-3.225-2.75v-1.475h2.8c1.8833,0.81669,3.4916,2.1334,4.825,3.95,1.0333,1.4,1.5583,2.95,1.575,4.65-0.000028,1.2334-0.24169,2.3583-0.725,3.375-0.35003,0.73335-1.125,1.9583-2.325,3.675-1.5834,2.2167-3.4,4.0917-5.45,5.625-3.75,2.8-6.775,4.5667-9.075,5.3h-4.625l0.025-23.9h-4.4v-2.675h9z"/>
 </g>
 <g style="writing-mode:lr-tb;text-anchor:start;text-align:start;" font-weight="normal" transform="translate(39.345524,45.601795)" font-stretch="normal" font-size="24px" font-variant="normal" font-style="normal" font-family="DejaVu Serif" line-height="125%">
  <path style="text-align:start;" d="m7.7461-11.203,0,7.8047c-0.0000077,1.0938,0.28905,1.7734,0.86719,2.0391,0.42968,0.19531,1.1328,0.0000014,2.1094-0.58594v1.418c-1.5941,0.91382-2.9457,0.89429-4.055-0.05884-0.7266-0.62496-1.086-1.5625-1.0782-2.8125v-7.8047h-3.3867v1.875h-1.2305v-3.1289h11.391v1.2539z"/>
 </g>
</svg>
