<!-- Created with Inkscape (http://www.inkscape.org/) -->
<svg xmlns:rdf="http://www.w3.org/1999/02/22-rdf-syntax-ns#" xmlns="http://www.w3.org/2000/svg" height="64px" width="64px" version="1.1" xmlns:cc="http://creativecommons.org/ns#" xmlns:xlink="http://www.w3.org/1999/xlink" xmlns:dc="http://purl.org/dc/elements/1.1/">
 <defs>
  <linearGradient id="linearGradient5072" y2="218.9" gradientUnits="userSpaceOnUse" y1="169.79" gradientTransform="translate(0.3594,161.3984)" x2="294.45" x1="266.1">
   <stop stop-color="#FE7" offset="0"/>
   <stop stop-color="#EB3" offset="1"/>
  </linearGradient>
 </defs>
 <metadata>
  <rdf:RDF>
   <cc:Work rdf:about="">
    <dc:format>image/svg+xml</dc:format>
    <dc:type rdf:resource="http://purl.org/dc/dcmitype/StillImage"/>
    <dc:title/>
   </cc:Work>
  </rdf:RDF>
 </metadata>
 <circle cx="280.63" cy="355.74" transform="translate(-247.99999,-324.1929)" r="28.347" fill="url(#linearGradient5072)"/>
 <g style="writing-mode:lr-tb;text-anchor:start;text-align:start;" font-weight="normal" transform="translate(-247.99999,-324.1929)" font-stretch="normal" font-size="51.20000076px" font-variant="normal" font-style="normal" font-family="DejaVu Serif" line-height="125%">
  <path style="text-align:start;" d="m282.72,341.18,8.6,0,0,23.975,4.35,0,0,2.6-8.95,0,0-4.7c-0.86668,1.7667-1.9125,3.1125-3.1375,4.0375s-2.5875,1.3875-4.0875,1.3875c-0.95001,0-1.8167-0.15-2.6-0.45-0.78334-0.3-1.5-0.75-2.15-1.35v11.725h-4.6v-34.55h-4.15v-2.675h8.75v15.475c-0.00001,3.2333,0.39999,5.45,1.2,6.65,0.79999,1.2,2.2083,1.8,4.225,1.8,2.1333,0,3.7583-0.78333,4.875-2.35,1.1166-1.5667,1.675-3.8417,1.675-6.825v-12.075h-4z"/>
 </g>
</svg>
