<?xml version="1.0" encoding="UTF-8" standalone="no"?>
<!-- Created with Inkscape (http://www.inkscape.org/) -->

<svg
   xmlns:dc="http://purl.org/dc/elements/1.1/"
   xmlns:cc="http://creativecommons.org/ns#"
   xmlns:rdf="http://www.w3.org/1999/02/22-rdf-syntax-ns#"
   xmlns:svg="http://www.w3.org/2000/svg"
   xmlns="http://www.w3.org/2000/svg"
   xmlns:xlink="http://www.w3.org/1999/xlink"
   xmlns:sodipodi="http://sodipodi.sourceforge.net/DTD/sodipodi-0.dtd"
   xmlns:inkscape="http://www.inkscape.org/namespaces/inkscape"
   width="64px"
   height="64px"
   id="svg5003"
   version="1.1"
   inkscape:version="0.48.4 r9939"
   sodipodi:docname="32.svg">
  <defs
     id="defs5005">
    <linearGradient
       id="SVGID_13_"
       gradientUnits="userSpaceOnUse"
       x1="555.22711"
       y1="-119.3384"
       x2="583.5791"
       y2="-70.231201"
       gradientTransform="translate(0.3594,161.3984)">
      <stop
         offset="0"
         style="stop-color:#FF9977"
         id="stop3076" />
      <stop
         offset="1"
         style="stop-color:#DD5544"
         id="stop3078" />
    </linearGradient>
    <linearGradient
       y2="-70.231201"
       x2="583.5791"
       y1="-119.3384"
       x1="555.22711"
       gradientTransform="translate(0.3594,161.3984)"
       gradientUnits="userSpaceOnUse"
       id="linearGradient5269"
       xlink:href="#SVGID_13_"
       inkscape:collect="always" />
  </defs>
  <sodipodi:namedview
     id="base"
     pagecolor="#ffffff"
     bordercolor="#666666"
     borderopacity="1.0"
     inkscape:pageopacity="0.0"
     inkscape:pageshadow="2"
     inkscape:zoom="7.7781746"
     inkscape:cx="31.343447"
     inkscape:cy="21.743329"
     inkscape:current-layer="layer1"
     showgrid="true"
     inkscape:document-units="px"
     inkscape:grid-bbox="true"
     inkscape:window-width="635"
     inkscape:window-height="986"
     inkscape:window-x="1366"
     inkscape:window-y="0"
     inkscape:window-maximized="0">
    <inkscape:grid
       type="xygrid"
       id="grid5054" />
  </sodipodi:namedview>
  <metadata
     id="metadata5008">
    <rdf:RDF>
      <cc:Work
         rdf:about="">
        <dc:format>image/svg+xml</dc:format>
        <dc:type
           rdf:resource="http://purl.org/dc/dcmitype/StillImage" />
        <dc:title></dc:title>
      </cc:Work>
    </rdf:RDF>
  </metadata>
  <g
     id="layer1"
     inkscape:label="Layer 1"
     inkscape:groupmode="layer">
    <circle
       style="fill:url(#linearGradient5269)"
       sodipodi:ry="28.347"
       sodipodi:rx="28.347"
       sodipodi:cy="66.613998"
       sodipodi:cx="569.763"
       transform="translate(-537.1856,-35.131425)"
       cx="569.763"
       cy="66.613998"
       r="28.347"
       id="circle3080" />
    <g
       transform="translate(18.394985,42.451574)"
       style="font-size:48px;display:inline;font-family:DejaVuSans"
       id="text4126">
      <path
         inkscape:connector-curvature="0"
         d="M 2.390625,2.0625 6.4921875,2.671875 C 6.6640558,3.9374961 7.1406179,4.8593701 7.921875,5.4375 c 1.046866,0.7812438 2.476552,1.1718684 4.289063,1.171875 1.95311,-6.6e-6 3.460921,-0.3906312 4.523437,-1.171875 1.062482,-0.7812547 1.781231,-1.8750036 2.15625,-3.28125 0.218731,-0.8593763 0.320293,-2.66406199 0.304687,-5.4140625 C 17.351545,-1.0859364 15.054672,0 12.304688,0 8.8828036,0 6.2343688,-1.2343738 4.359375,-3.703125 c -1.8750025,-2.4687438 -2.8125015,-5.4296784 -2.8125,-8.882813 -1.5e-6,-2.374985 0.4296855,-4.566389 1.2890625,-6.574218 0.8593713,-2.007792 2.1054638,-3.558571 3.7382812,-4.652344 1.6328043,-1.093725 3.5507713,-1.6406 5.7539063,-1.640625 2.937485,2.5e-5 5.359357,1.187524 7.265625,3.5625 l 0,-3 3.890625,0 0,21.515625 c -2.3e-5,3.8749995 -0.394554,6.6210905 -1.183594,8.2382812 -0.789084,1.6171811 -2.039083,2.8945235 -3.75,3.8320313 C 16.839827,9.6328029 14.73436,10.101552 12.234375,10.101563 9.2656157,10.101552 6.8671806,9.4335843 5.0390625,8.0976563 3.2109343,6.761712 2.3281227,4.7499952 2.390625,2.0625 z m 3.4921875,-14.953125 c -5.9e-6,3.2656346 0.648431,5.6484447 1.9453125,7.1484375 1.2968659,1.5000042 2.921864,2.2500035 4.875,2.25 1.937485,3.5e-6 3.562484,-0.7460895 4.875,-2.2382812 1.312481,-1.4921803 1.96873,-3.8320217 1.96875,-7.0195313 -2e-5,-3.046859 -0.6758,-5.343732 -2.027344,-6.890625 -1.351578,-1.546854 -2.980483,-2.320291 -4.886718,-2.320312 -1.875011,2.1e-5 -3.4687597,0.761739 -4.7812505,2.285156 -1.3125065,1.523455 -1.9687559,3.785172 -1.96875,6.785156 z"
         style="font-size:48px;font-family:DejaVuSans"
         id="path4738" />
    </g>
  </g>
</svg>
