<?xml version="1.0" encoding="UTF-8" standalone="no"?>
<!-- Created with Inkscape (http://www.inkscape.org/) -->

<svg
   xmlns:dc="http://purl.org/dc/elements/1.1/"
   xmlns:cc="http://creativecommons.org/ns#"
   xmlns:rdf="http://www.w3.org/1999/02/22-rdf-syntax-ns#"
   xmlns:svg="http://www.w3.org/2000/svg"
   xmlns="http://www.w3.org/2000/svg"
   xmlns:xlink="http://www.w3.org/1999/xlink"
   xmlns:sodipodi="http://sodipodi.sourceforge.net/DTD/sodipodi-0.dtd"
   xmlns:inkscape="http://www.inkscape.org/namespaces/inkscape"
   width="64px"
   height="64px"
   id="svg4966"
   version="1.1"
   inkscape:version="0.48.4 r9939"
   sodipodi:docname="2.svg">
  <defs
     id="defs4968">
    <linearGradient
       id="SVGID_16_"
       gradientUnits="userSpaceOnUse"
       x1="124.3643"
       y1="169.7935"
       x2="152.71581"
       y2="218.8998"
       gradientTransform="translate(0.3594,161.3984)">
      <stop
         offset="0"
         style="stop-color:#ffee77;stop-opacity:1;"
         id="stop3097" />
      <stop
         offset="1"
         style="stop-color:#eebb33;stop-opacity:1;"
         id="stop3099" />
    </linearGradient>
    <linearGradient
       y2="218.8998"
       x2="152.71581"
       y1="169.7935"
       x1="124.3643"
       gradientTransform="translate(0.3594,161.3984)"
       gradientUnits="userSpaceOnUse"
       id="linearGradient4945"
       xlink:href="#SVGID_16_"
       inkscape:collect="always" />
  </defs>
  <sodipodi:namedview
     id="base"
     pagecolor="#ffffff"
     bordercolor="#666666"
     borderopacity="1.0"
     inkscape:pageopacity="0.0"
     inkscape:pageshadow="2"
     inkscape:zoom="3.8890873"
     inkscape:cx="34.013764"
     inkscape:cy="28.784468"
     inkscape:current-layer="layer1"
     showgrid="true"
     inkscape:document-units="px"
     inkscape:grid-bbox="true"
     inkscape:window-width="720"
     inkscape:window-height="430"
     inkscape:window-x="13"
     inkscape:window-y="12"
     inkscape:window-maximized="0">
    <inkscape:grid
       type="xygrid"
       id="grid4993" />
  </sodipodi:namedview>
  <metadata
     id="metadata4971">
    <rdf:RDF>
      <cc:Work
         rdf:about="">
        <dc:format>image/svg+xml</dc:format>
        <dc:type
           rdf:resource="http://purl.org/dc/dcmitype/StillImage" />
        <dc:title />
      </cc:Work>
    </rdf:RDF>
  </metadata>
  <g
     id="layer1"
     inkscape:label="Layer 1"
     inkscape:groupmode="layer">
    <circle
       style="fill:url(#linearGradient4945)"
       sodipodi:ry="28.347"
       sodipodi:rx="28.347"
       sodipodi:cy="355.745"
       sodipodi:cx="138.899"
       transform="translate(-106.53537,-324.10863)"
       cx="138.899"
       cy="355.745"
       r="28.347"
       id="circle3101" />
    <g
       transform="translate(-106.53537,-324.10863)"
       style="font-size:48px;display:inline;font-family:DejaVuSans"
       id="text4146">
      <path
         inkscape:connector-curvature="0"
         d="m 144.49563,359.53519 4.35937,0.53906 c -0.68752,2.54688 -1.96096,4.52344 -3.82031,5.92969 -1.85939,1.40625 -4.23439,2.10937 -7.125,2.10937 -3.64063,0 -6.52735,-1.12109 -8.66016,-3.36328 -2.13281,-2.24218 -3.19922,-5.38671 -3.19921,-9.43359 -1e-5,-4.18749 1.07812,-7.43748 3.23437,-9.75 2.15624,-2.31248 4.95312,-3.46873 8.39063,-3.46875 3.3281,2e-5 6.04685,1.13283 8.15625,3.39843 2.10935,2.26565 3.16403,5.45315 3.16406,9.5625 -3e-5,0.25002 -0.008,0.62502 -0.0234,1.125 l -18.5625,0 c 0.15624,2.73439 0.92968,4.82814 2.32031,6.28125 1.39062,1.45313 3.12499,2.17969 5.20313,2.17969 1.54686,0 2.86717,-0.40624 3.96094,-1.21875 1.09373,-0.81249 1.96091,-2.10937 2.60156,-3.89062 z m -13.85156,-6.82032 13.89843,0 c -0.18752,-2.09373 -0.71877,-3.66404 -1.59375,-4.71093 -1.34376,-1.62498 -3.08595,-2.43748 -5.22656,-2.4375 -1.93751,2e-5 -3.56642,0.64846 -4.88672,1.94531 -1.32032,1.29689 -2.05079,3.03127 -2.1914,5.20312 z"
         style="font-size:48px;font-family:DejaVuSans"
         id="path4790" />
    </g>
  </g>
</svg>
