<?xml version="1.0" encoding="UTF-8" standalone="no"?>
<!-- Created with Inkscape (http://www.inkscape.org/) -->

<svg
   xmlns:dc="http://purl.org/dc/elements/1.1/"
   xmlns:cc="http://creativecommons.org/ns#"
   xmlns:rdf="http://www.w3.org/1999/02/22-rdf-syntax-ns#"
   xmlns:svg="http://www.w3.org/2000/svg"
   xmlns="http://www.w3.org/2000/svg"
   xmlns:xlink="http://www.w3.org/1999/xlink"
   xmlns:sodipodi="http://sodipodi.sourceforge.net/DTD/sodipodi-0.dtd"
   xmlns:inkscape="http://www.inkscape.org/namespaces/inkscape"
   width="64px"
   height="64px"
   id="svg5003"
   version="1.1"
   inkscape:version="0.48.4 r9939"
   sodipodi:docname="New document 6">
  <defs
     id="defs5005">
    <linearGradient
       id="SVGID_22_"
       gradientUnits="userSpaceOnUse"
       x1="124.3633"
       y1="311.5264"
       x2="152.7153"
       y2="360.63361"
       gradientTransform="translate(0.3594,161.3984)">
      <stop
         offset="0"
         style="stop-color:#AAFF77"
         id="stop3139" />
      <stop
         offset="1"
         style="stop-color:#66CC33"
         id="stop3141" />
    </linearGradient>
    <linearGradient
       y2="360.63361"
       x2="152.7153"
       y1="311.5264"
       x1="124.3633"
       gradientTransform="translate(0.3594,161.3984)"
       gradientUnits="userSpaceOnUse"
       id="linearGradient5029"
       xlink:href="#SVGID_22_"
       inkscape:collect="always" />
  </defs>
  <sodipodi:namedview
     id="base"
     pagecolor="#ffffff"
     bordercolor="#666666"
     borderopacity="1.0"
     inkscape:pageopacity="0.0"
     inkscape:pageshadow="2"
     inkscape:zoom="5.5"
     inkscape:cx="40.402902"
     inkscape:cy="24.727273"
     inkscape:current-layer="layer1"
     showgrid="true"
     inkscape:document-units="px"
     inkscape:grid-bbox="true"
     inkscape:window-width="624"
     inkscape:window-height="986"
     inkscape:window-x="1366"
     inkscape:window-y="0"
     inkscape:window-maximized="0">
    <inkscape:grid
       type="xygrid"
       id="grid5054" />
  </sodipodi:namedview>
  <metadata
     id="metadata5008">
    <rdf:RDF>
      <cc:Work
         rdf:about="">
        <dc:format>image/svg+xml</dc:format>
        <dc:type
           rdf:resource="http://purl.org/dc/dcmitype/StillImage" />
        <dc:title></dc:title>
      </cc:Work>
    </rdf:RDF>
  </metadata>
  <g
     id="layer1"
     inkscape:label="Layer 1"
     inkscape:groupmode="layer">
    <circle
       style="fill:url(#linearGradient5029)"
       sodipodi:ry="28.347"
       sodipodi:rx="28.347"
       sodipodi:cy="497.478"
       sodipodi:cx="138.89799"
       transform="translate(-106.35254,-465.65981)"
       cx="138.89799"
       cy="497.478"
       r="28.347"
       id="circle3143" />
    <g
       transform="translate(12.116253,45.828478)"
       style="font-size:51.20000076px;font-style:normal;font-variant:normal;font-weight:normal;font-stretch:normal;text-align:start;line-height:125%;letter-spacing:-2;writing-mode:lr-tb;text-anchor:start;display:inline;font-family:DejaVu Serif;-inkscape-font-specification:DejaVu Serif"
       id="text4206">
      <path
         inkscape:connector-curvature="0"
         d="m 10.85,-2.9 c 2.033321,-0.7999964 4.149985,-2.1666617 6.35,-4.1000001 1.333315,-1.1666585 2.791647,-3.1999899 4.375,-6.0999999 1.016644,-1.799985 1.591644,-3.533317 1.725,-5.2 0.13331,-1.533314 -0.150023,-2.883312 -0.85,-4.05 -0.950021,-1.616643 -2.02502,-2.533309 -3.225,-2.75 l 0,-1.475 2.8,0 c 1.88331,0.816692 3.491642,2.133357 4.825,3.95 1.033306,1.400021 1.558305,2.950019 1.575,4.65 -2.8e-5,1.23335 -0.241694,2.358349 -0.725,3.375 -0.350027,0.733347 -1.125026,1.958346 -2.325,3.675 -1.583357,2.2166752 -3.400022,4.0916734 -5.45,5.6249999 C 16.174984,-2.4999975 13.149987,-0.73333261 10.85,0 l -4.6249999,0 0.025,-23.9 -4.4000001,0 0,-2.675 9,0 z"
         style="font-size:51.20000076px;font-style:normal;font-variant:normal;font-weight:normal;font-stretch:normal;text-align:start;line-height:125%;letter-spacing:-2;writing-mode:lr-tb;text-anchor:start;font-family:DejaVu Serif;-inkscape-font-specification:DejaVu Serif"
         id="path4948" />
    </g>
    <g
       transform="translate(38.527354,45.828478)"
       style="font-size:24px;display:inline;font-family:DejaVuSans"
       id="text4208">
      <path
         inkscape:connector-curvature="0"
         d="m 10.101563,-4.0078125 2.179687,0.2695312 c -0.343762,1.27344 -0.98048,2.2617203 -1.910156,2.9648438 C 9.4413968,-0.07031243 8.253898,0.28124972 6.8085937,0.28125 4.9882763,0.28124972 3.5449183,-0.2792966 2.4785156,-1.4003906 1.412108,-2.5214819 0.87890537,-4.0937459 0.87890625,-6.1171875 c -8.8e-7,-2.0937418 0.53906105,-3.7187402 1.61718755,-4.8750005 1.0781214,-1.156237 2.4765575,-1.734362 4.1953124,-1.734375 1.6640542,1.3e-5 3.0234278,0.566419 4.0781248,1.699219 1.054676,1.1328226 1.582019,2.7265711 1.582032,4.7812503 -1.3e-5,0.1250061 -0.0039,0.3125059 -0.01172,0.5625 l -9.2812502,0 c 0.078122,1.3671918 0.4648402,2.4140657 1.1601562,3.1406249 0.6953076,0.7265644 1.5624942,1.0898453 2.6015625,1.0898438 0.7734299,1.5e-6 1.4335855,-0.2031233 1.9804688,-0.609375 0.5468656,-0.4062475 0.9804589,-1.0546844 1.3007817,-1.9453125 z m -6.9257817,-3.4101562 6.9492187,0 C 10.03124,-8.4648353 9.7656152,-9.2499908 9.328125,-9.7734375 8.6562413,-10.585927 7.7851485,-10.992177 6.7148437,-10.992188 c -0.9687557,1.1e-5 -1.783208,0.32423 -2.4433593,0.972657 -0.6601599,0.6484466 -1.0253939,1.5156333 -1.0957031,2.6015623 z"
         style="font-size:24px;font-family:DejaVuSans"
         id="path4951" />
    </g>
  </g>
</svg>
