<?xml version="1.0" encoding="UTF-8" standalone="no"?>
<!-- Created with Inkscape (http://www.inkscape.org/) -->

<svg
   xmlns:dc="http://purl.org/dc/elements/1.1/"
   xmlns:cc="http://creativecommons.org/ns#"
   xmlns:rdf="http://www.w3.org/1999/02/22-rdf-syntax-ns#"
   xmlns:svg="http://www.w3.org/2000/svg"
   xmlns="http://www.w3.org/2000/svg"
   xmlns:xlink="http://www.w3.org/1999/xlink"
   xmlns:sodipodi="http://sodipodi.sourceforge.net/DTD/sodipodi-0.dtd"
   xmlns:inkscape="http://www.inkscape.org/namespaces/inkscape"
   width="64px"
   height="64px"
   id="svg5003"
   version="1.1"
   inkscape:version="0.48.4 r9939"
   sodipodi:docname="64.svg">
  <defs
     id="defs5005">
    <linearGradient
       id="SVGID_26_"
       gradientUnits="userSpaceOnUse"
       x1="407.82571"
       y1="311.5264"
       x2="436.1778"
       y2="360.63351"
       gradientTransform="translate(0.3594,161.3984)">
      <stop
         offset="0"
         style="stop-color:#ffee77;stop-opacity:1;"
         id="stop3167" />
      <stop
         offset="1"
         style="stop-color:#eebb33;stop-opacity:1;"
         id="stop3169" />
    </linearGradient>
    <linearGradient
       y2="360.63351"
       x2="436.1778"
       y1="311.5264"
       x1="407.82571"
       gradientTransform="translate(0.3594,161.3984)"
       gradientUnits="userSpaceOnUse"
       id="linearGradient5191"
       xlink:href="#SVGID_26_"
       inkscape:collect="always" />
  </defs>
  <sodipodi:namedview
     id="base"
     pagecolor="#ffffff"
     bordercolor="#666666"
     borderopacity="1.0"
     inkscape:pageopacity="0.0"
     inkscape:pageshadow="2"
     inkscape:zoom="7.7781746"
     inkscape:cx="32"
     inkscape:cy="21.743329"
     inkscape:current-layer="layer1"
     showgrid="true"
     inkscape:document-units="px"
     inkscape:grid-bbox="true"
     inkscape:window-width="720"
     inkscape:window-height="986"
     inkscape:window-x="1366"
     inkscape:window-y="0"
     inkscape:window-maximized="0">
    <inkscape:grid
       type="xygrid"
       id="grid5054" />
  </sodipodi:namedview>
  <metadata
     id="metadata5008">
    <rdf:RDF>
      <cc:Work
         rdf:about="">
        <dc:format>image/svg+xml</dc:format>
        <dc:type
           rdf:resource="http://purl.org/dc/dcmitype/StillImage" />
        <dc:title />
      </cc:Work>
    </rdf:RDF>
  </metadata>
  <g
     id="layer1"
     inkscape:label="Layer 1"
     inkscape:groupmode="layer">
    <circle
       style="fill:url(#linearGradient5191)"
       sodipodi:ry="28.347"
       sodipodi:rx="28.347"
       sodipodi:cy="497.478"
       sodipodi:cx="422.36099"
       transform="translate(-389.74286,-465.88651)"
       cx="422.36099"
       cy="497.478"
       r="28.347"
       id="circle3171" />
    <g
       transform="translate(12.935324,45.601795)"
       style="font-size:51.20000076px;font-style:normal;font-variant:normal;font-weight:normal;font-stretch:normal;text-align:start;line-height:125%;letter-spacing:-2;writing-mode:lr-tb;text-anchor:start;display:inline;font-family:DejaVu Serif;-inkscape-font-specification:DejaVu Serif"
       id="text4254">
      <path
         inkscape:connector-curvature="0"
         d="m 10.85,-2.9 c 2.033321,-0.7999964 4.149985,-2.1666617 6.35,-4.1000001 1.333315,-1.1666585 2.791647,-3.1999899 4.375,-6.0999999 1.016644,-1.799985 1.591644,-3.533317 1.725,-5.2 0.13331,-1.533314 -0.150023,-2.883312 -0.85,-4.05 -0.950021,-1.616643 -2.02502,-2.533309 -3.225,-2.75 l 0,-1.475 2.8,0 c 1.88331,0.816692 3.491642,2.133357 4.825,3.95 1.033306,1.400021 1.558305,2.950019 1.575,4.65 -2.8e-5,1.23335 -0.241694,2.358349 -0.725,3.375 -0.350027,0.733347 -1.125026,1.958346 -2.325,3.675 -1.583357,2.2166752 -3.400022,4.0916734 -5.45,5.6249999 C 16.174984,-2.4999975 13.149987,-0.73333261 10.85,0 l -4.6249999,0 0.025,-23.9 -4.4000001,0 0,-2.675 9,0 z"
         style="font-size:51.20000076px;font-style:normal;font-variant:normal;font-weight:normal;font-stretch:normal;text-align:start;line-height:125%;letter-spacing:-2;writing-mode:lr-tb;text-anchor:start;font-family:DejaVu Serif;-inkscape-font-specification:DejaVu Serif"
         id="path5096" />
    </g>
    <g
       transform="translate(39.345524,45.601795)"
       style="font-size:24px;font-style:normal;font-variant:normal;font-weight:normal;font-stretch:normal;text-align:start;line-height:125%;writing-mode:lr-tb;text-anchor:start;display:inline;font-family:DejaVu Serif;-inkscape-font-specification:DejaVu Serif"
       id="text4256">
      <path
         inkscape:connector-curvature="0"
         d="m 7.7460937,-11.203125 0,7.8046875 c -7.7e-6,1.0937523 0.2890545,1.7734391 0.8671876,2.0390625 0.4296784,0.1953137 1.1328027,1.4e-6 2.1093747,-0.5859375 l 0,1.41796875 C 9.1288971,0.38671836 7.777336,0.36718713 6.6679687,-0.58593755 5.9414003,-1.2109363 5.5820257,-2.1484355 5.5898437,-3.3984376 l 0,-7.8046874 -3.3867187,0 0,1.8749999 -1.23046875,0 0,-3.1289059 11.39062475,0 0,1.253906 z"
         style="font-size:24px;font-style:normal;font-variant:normal;font-weight:normal;font-stretch:normal;text-align:start;line-height:125%;writing-mode:lr-tb;text-anchor:start;font-family:DejaVu Serif;-inkscape-font-specification:DejaVu Serif"
         id="path5099" />
    </g>
  </g>
</svg>
